<svg width="80" height="80" viewBox="0 0 80 80" fill="none" xmlns="http://www.w3.org/2000/svg">
<rect x="2" y="78" width="76" height="76" rx="38" transform="rotate(-90 2 78)" fill="white"/>
<path fill-rule="evenodd" clip-rule="evenodd" d="M40 60C39.3369 60 38.7011 59.7366 38.2322 59.2678C37.7634 58.7989 37.5 58.163 37.5 57.5L37.5 28.535L26.77 39.27C26.3006 39.7394 25.6639 40.0032 25 40.0032C24.3361 40.0032 23.6994 39.7394 23.23 39.27C22.7606 38.8006 22.4968 38.1639 22.4968 37.5C22.4968 36.8361 22.7606 36.1994 23.23 35.73L38.23 20.73C38.4622 20.4972 38.7381 20.3125 39.0418 20.1864C39.3455 20.0604 39.6711 19.9955 40 19.9955C40.3288 19.9955 40.6544 20.0604 40.9582 20.1864C41.2619 20.3125 41.5378 20.4972 41.77 20.73L56.77 35.73C57.2394 36.1994 57.5031 36.8361 57.5031 37.5C57.5031 38.1639 57.2394 38.8006 56.77 39.27C56.3006 39.7394 55.6639 40.0032 55 40.0032C54.3361 40.0032 53.6994 39.7394 53.23 39.27L42.5 28.535L42.5 57.5C42.5 58.163 42.2366 58.7989 41.7678 59.2678C41.2989 59.7366 40.663 60 40 60Z" fill="#7B84EB"/>
<rect x="2" y="78" width="76" height="76" rx="38" transform="rotate(-90 2 78)" stroke="#7B84EB" stroke-width="4"/>
</svg>
