<svg width="35" height="35" viewBox="0 0 35 35" fill="none" xmlns="http://www.w3.org/2000/svg">
<path d="M17.5 15.3125C12.0743 15.3125 4.43655 23.7002 4.43655 28.998C4.37639 31.3838 6.20432 32.8125 9.28323 32.8125C12.6192 32.8125 14.8272 31.0967 17.5 31.0967C20.2002 31.0967 22.4151 32.8125 25.7168 32.8125C28.7315 32.8125 30.6209 31.3851 30.6209 29.0015C30.5635 23.707 22.9278 15.3125 17.5 15.3125ZM7.43753 14.4512C6.72864 12.0846 4.53225 10.5465 2.54163 11.025C0.551002 11.5035 -0.485599 13.8086 0.223561 16.1738C0.932448 18.5459 3.12883 20.084 5.11946 19.6055C7.11008 19.1269 8.14163 16.8164 7.43753 14.4512ZM13.2276 13.0293C15.3378 12.4739 16.3974 9.67284 15.586 6.64657C14.7745 3.6203 12.4073 1.78622 10.2888 2.28046C8.17854 2.83588 7.11897 5.6369 7.9304 8.66317C8.74319 11.6279 11.1084 13.5898 13.2276 13.0293ZM32.4639 11.0264C30.4733 10.6094 28.2769 12.0859 27.568 14.4525C26.8591 16.8198 27.8927 19.1263 29.8833 19.6048C31.874 20.0218 34.0615 18.5452 34.7792 16.1786C35.4854 13.8086 34.3916 11.5049 32.4639 11.0264ZM21.7725 13.0293C23.8301 13.5847 26.2582 11.6279 27.0697 8.66317C27.8811 5.69843 26.8219 2.83553 24.7113 2.28046C22.6536 1.72504 20.2255 3.68182 19.4141 6.64657C18.6006 9.61132 19.6602 12.4756 21.7725 13.0293Z" fill="#7B84EB"/>
<path d="M14.1482 21.2911C14.1897 21.2495 14.239 21.2165 14.2932 21.194C14.3475 21.1715 14.4056 21.1599 14.4643 21.1599C14.523 21.1599 14.5812 21.1715 14.6354 21.194C14.6897 21.2165 14.7389 21.2495 14.7804 21.2911L17.1429 23.6545L19.5054 21.2911C19.5469 21.2496 19.5962 21.2166 19.6504 21.1942C19.7046 21.1717 19.7628 21.1601 19.8215 21.1601C19.8802 21.1601 19.9383 21.1717 19.9925 21.1942C20.0467 21.2166 20.096 21.2496 20.1375 21.2911C20.179 21.3326 20.212 21.3819 20.2344 21.4361C20.2569 21.4903 20.2685 21.5484 20.2685 21.6071C20.2685 21.6658 20.2569 21.724 20.2344 21.7782C20.212 21.8324 20.179 21.8817 20.1375 21.9232L17.7741 24.2857L20.1375 26.6482C20.179 26.6897 20.212 26.739 20.2344 26.7932C20.2569 26.8475 20.2685 26.9056 20.2685 26.9643C20.2685 27.023 20.2569 27.0811 20.2344 27.1353C20.212 27.1896 20.179 27.2388 20.1375 27.2804C20.096 27.3219 20.0467 27.3548 19.9925 27.3772C19.9383 27.3997 19.8802 27.4113 19.8215 27.4113C19.7628 27.4113 19.7046 27.3997 19.6504 27.3772C19.5962 27.3548 19.5469 27.3219 19.5054 27.2804L17.1429 24.917L14.7804 27.2804C14.7389 27.3219 14.6896 27.3548 14.6354 27.3772C14.5811 27.3997 14.523 27.4113 14.4643 27.4113C14.4056 27.4113 14.3475 27.3997 14.2933 27.3772C14.239 27.3548 14.1898 27.3219 14.1482 27.2804C14.1067 27.2388 14.0738 27.1896 14.0513 27.1353C14.0289 27.0811 14.0173 27.023 14.0173 26.9643C14.0173 26.9056 14.0289 26.8475 14.0513 26.7932C14.0738 26.739 14.1067 26.6897 14.1482 26.6482L16.5116 24.2857L14.1482 21.9232C14.1067 21.8817 14.0737 21.8325 14.0512 21.7782C14.0287 21.724 14.0171 21.6659 14.0171 21.6071C14.0171 21.5484 14.0287 21.4903 14.0512 21.436C14.0737 21.3818 14.1067 21.3325 14.1482 21.2911Z" fill="#E9EBF3"/>
</svg>
