<svg width="60" height="60" viewBox="0 0 78 78" fill="none" xmlns="http://www.w3.org/2000/svg">
<g clip-path="url(#clip0_2_32)">
<path d="M13 78L17.3323 69.3323L26 65L17.3323 60.6677L13 52L8.66775 60.6677L0 65L8.66775 69.3323L13 78Z" fill="#E3AC50"/>
<path d="M69.3323 69.3323L78 65L69.3323 60.6677L65 52L60.6677 60.6677L52 65L60.6677 69.3323L65 78L69.3323 69.3323Z" fill="#E3AC50"/>
<path d="M43.3323 8.66775L39 0L34.6677 8.66775L26 13L34.6677 17.3323L39 26L43.3323 17.3323L52 13L43.3323 8.66775Z" fill="#E3AC50"/>
<path d="M16.25 45.5C18.0449 45.5 19.5 44.0449 19.5 42.25C19.5 40.4551 18.0449 39 16.25 39C14.4551 39 13 40.4551 13 42.25C13 44.0449 14.4551 45.5 16.25 45.5Z" fill="#E3AC50"/>
<path d="M3.25 32.5C5.04493 32.5 6.5 31.0449 6.5 29.25C6.5 27.4551 5.04493 26 3.25 26C1.45507 26 0 27.4551 0 29.25C0 31.0449 1.45507 32.5 3.25 32.5Z" fill="#E3AC50"/>
<path d="M16.25 19.5C18.0449 19.5 19.5 18.0449 19.5 16.25C19.5 14.4551 18.0449 13 16.25 13C14.4551 13 13 14.4551 13 16.25C13 18.0449 14.4551 19.5 16.25 19.5Z" fill="#E3AC50"/>
<path d="M3.25 6.5C5.04493 6.5 6.5 5.04493 6.5 3.25C6.5 1.45507 5.04493 0 3.25 0C1.45507 0 0 1.45507 0 3.25C0 5.04493 1.45507 6.5 3.25 6.5Z" fill="#E3AC50"/>
<path d="M74.75 45.5C76.5449 45.5 78 44.0449 78 42.25C78 40.4551 76.5449 39 74.75 39C72.9551 39 71.5 40.4551 71.5 42.25C71.5 44.0449 72.9551 45.5 74.75 45.5Z" fill="#E3AC50"/>
<path d="M61.75 32.5C63.5449 32.5 65 31.0449 65 29.25C65 27.4551 63.5449 26 61.75 26C59.9551 26 58.5 27.4551 58.5 29.25C58.5 31.0449 59.9551 32.5 61.75 32.5Z" fill="#E3AC50"/>
<path d="M74.75 19.5C76.5449 19.5 78 18.0449 78 16.25C78 14.4551 76.5449 13 74.75 13C72.9551 13 71.5 14.4551 71.5 16.25C71.5 18.0449 72.9551 19.5 74.75 19.5Z" fill="#E3AC50"/>
<path d="M61.75 6.5C63.5449 6.5 65 5.04493 65 3.25C65 1.45507 63.5449 0 61.75 0C59.9551 0 58.5 1.45507 58.5 3.25C58.5 5.04493 59.9551 6.5 61.75 6.5Z" fill="#E3AC50"/>
<path d="M45.5 78C47.2949 78 48.75 76.5449 48.75 74.75C48.75 72.9551 47.2949 71.5 45.5 71.5C43.7051 71.5 42.25 72.9551 42.25 74.75C42.25 76.5449 43.7051 78 45.5 78Z" fill="#E3AC50"/>
<path d="M32.5 65C34.2949 65 35.75 63.5449 35.75 61.75C35.75 59.9551 34.2949 58.5 32.5 58.5C30.7051 58.5 29.25 59.9551 29.25 61.75C29.25 63.5449 30.7051 65 32.5 65Z" fill="#E3AC50"/>
<path d="M45.5 52C47.2949 52 48.75 50.5449 48.75 48.75C48.75 46.9551 47.2949 45.5 45.5 45.5C43.7051 45.5 42.25 46.9551 42.25 48.75C42.25 50.5449 43.7051 52 45.5 52Z" fill="#E3AC50"/>
<path d="M32.5 39C34.2949 39 35.75 37.5449 35.75 35.75C35.75 33.9551 34.2949 32.5 32.5 32.5C30.7051 32.5 29.25 33.9551 29.25 35.75C29.25 37.5449 30.7051 39 32.5 39Z" fill="#E3AC50"/>
</g>
<defs>
<clipPath id="clip0_2_32">
<rect width="78" height="78" fill="white"/>
</clipPath>
</defs>
</svg>
