<svg width="35" height="35" viewBox="0 0 52 53" fill="none" xmlns="http://www.w3.org/2000/svg">
<g clip-path="url(#clip0_2_28)">
<path d="M26 35.3333C23.7015 35.3333 21.4971 34.4027 19.8717 32.7461C18.2464 31.0895 17.3333 28.8428 17.3333 26.5C17.3333 24.1573 18.2464 21.9105 19.8717 20.2539C21.4971 18.5973 23.7015 17.6667 26 17.6667C28.2986 17.6667 30.503 18.5973 32.1283 20.2539C33.7536 21.9105 34.6667 24.1573 34.6667 26.5C34.6667 28.8428 33.7536 31.0895 32.1283 32.7461C30.503 34.4027 28.2986 35.3333 26 35.3333ZM26 22.0833C24.8507 22.0833 23.7485 22.5487 22.9359 23.377C22.1232 24.2052 21.6667 25.3286 21.6667 26.5C21.6667 27.6714 22.1232 28.7948 22.9359 29.6231C23.7485 30.4513 24.8507 30.9167 26 30.9167C27.1493 30.9167 28.2515 30.4513 29.0641 29.6231C29.8768 28.7948 30.3333 27.6714 30.3333 26.5C30.3333 25.3286 29.8768 24.2052 29.0641 23.377C28.2515 22.5487 27.1493 22.0833 26 22.0833ZM26 53C23.6365 52.9975 21.3385 52.2084 19.4554 50.7527C17.5723 49.2969 16.2071 47.2542 15.5675 44.9352C13.281 45.4498 10.8929 45.2069 8.7513 44.2417C6.60968 43.2766 4.82635 41.6397 3.66111 39.5695C2.49588 37.4993 2.00962 35.104 2.27317 32.7325C2.53672 30.361 3.53632 28.1373 5.12634 26.3852C-2.24033 18.6317 5.14584 5.18517 15.6 7.9478C16.2743 5.67135 17.6498 3.67664 19.5228 2.25886C21.3958 0.841074 23.6669 0.0755386 26 0.0755386C28.3331 0.0755386 30.6042 0.841074 32.4772 2.25886C34.3502 3.67664 35.7257 5.67135 36.4 7.9478C47.0167 5.26246 54.1667 18.5765 46.8628 26.4801C54.2468 34.2932 46.8867 47.3312 36.4325 44.9352C35.7929 47.2542 34.4277 49.2969 32.5446 50.7527C30.6615 52.2084 28.3635 52.9975 26 53V53ZM17.3333 39.75C17.908 39.75 18.4591 39.9827 18.8654 40.3968C19.2717 40.811 19.5 41.3727 19.5 41.9583C19.5 43.7154 20.1848 45.4005 21.4038 46.6429C22.6228 47.8854 24.2761 48.5833 26 48.5833C27.7239 48.5833 29.3772 47.8854 30.5962 46.6429C31.8152 45.4005 32.5 43.7154 32.5 41.9583C32.4998 41.5693 32.6005 41.1871 32.7918 40.8505C32.9831 40.5139 33.2583 40.2347 33.5894 40.0413C33.9206 39.8479 34.296 39.747 34.6777 39.749C35.0594 39.751 35.4338 39.8557 35.763 40.0526C43.2727 43.7515 49.6297 33.0256 42.2977 28.4389C41.9593 28.2461 41.6776 27.9647 41.4815 27.6239C41.2854 27.2831 41.182 26.8951 41.182 26.5C41.182 26.1049 41.2854 25.7169 41.4815 25.3761C41.6776 25.0353 41.9593 24.754 42.2977 24.5611C49.4758 20.1245 43.4287 8.61913 35.7565 12.9585C35.4267 13.1542 35.0519 13.2576 34.6703 13.2582C34.2886 13.2589 33.9136 13.1568 33.5831 12.9622C33.2526 12.7677 32.9784 12.4876 32.7882 12.1504C32.598 11.8131 32.4986 11.4307 32.5 11.0417C32.5 9.28461 31.8152 7.59952 30.5962 6.35709C29.3772 5.11466 27.7239 4.41667 26 4.41667C24.2761 4.41667 22.6228 5.11466 21.4038 6.35709C20.1848 7.59952 19.5 9.28461 19.5 11.0417C19.5008 11.4297 19.4012 11.811 19.2113 12.1474C19.0215 12.4837 18.748 12.7631 18.4185 12.9574C18.089 13.1518 17.7151 13.2542 17.3344 13.2544C16.9537 13.2546 16.5797 13.1525 16.25 12.9585C8.66667 8.63017 2.46567 20.0517 9.70234 24.4463C10.0406 24.6394 10.3223 24.921 10.5183 25.262C10.7143 25.603 10.8177 25.9911 10.8177 26.3863C10.8177 26.7815 10.7143 27.1696 10.5183 27.5106C10.3223 27.8515 10.0406 28.1331 9.70234 28.3263C2.44834 32.9925 8.58867 43.725 16.237 40.0526C16.5696 39.8541 16.948 39.7497 17.3333 39.75Z" fill="#E3AC50"/>
</g>
<defs>
<clipPath id="clip0_2_28">
<rect width="52" height="53" fill="white"/>
</clipPath>
</defs>
</svg>
