<svg width="25" height="25" viewBox="0 0 39 38" fill="none" xmlns="http://www.w3.org/2000/svg">
<g clip-path="url(#clip0_10_107)">
<path fill-rule="evenodd" clip-rule="evenodd" d="M19.7109 0.752441C9.33468 0.752441 0.921875 9.16368 0.921875 19.5415C0.921875 27.8431 6.30494 34.8859 13.7705 37.3708C14.7099 37.5446 15.0544 36.9637 15.0544 36.4673C15.0544 36.0195 15.0372 34.5399 15.0293 32.9694C9.80284 34.1062 8.69898 30.7523 8.69898 30.7523C7.84408 28.5806 6.6134 28.0028 6.6134 28.0028C4.90829 26.8364 6.74179 26.8614 6.74179 26.8614C8.62852 26.9945 9.62121 28.7982 9.62121 28.7982C11.2966 31.6698 14.0163 30.84 15.0888 30.3593C15.2579 29.1443 15.7449 28.316 16.2819 27.8463C12.1092 27.3718 7.72195 25.7607 7.72195 18.5613C7.72195 16.5102 8.45629 14.8333 9.65879 13.518C9.46307 13.0436 8.81955 11.1334 9.84042 8.5452C9.84042 8.5452 11.4187 8.04103 15.009 10.4711C16.5074 10.0546 18.1139 9.84635 19.7109 9.83852C21.308 9.84635 22.916 10.0546 24.4176 10.4711C28.0032 8.03947 29.5799 8.5452 29.5799 8.5452C30.6023 11.1334 29.9588 13.0436 29.7647 13.518C30.9687 14.8333 31.6984 16.5102 31.6984 18.5613C31.6984 25.7779 27.3033 27.3671 23.1196 27.8322C23.7929 28.4146 24.3941 29.5592 24.3941 31.3113C24.3941 33.8259 24.3722 35.8488 24.3722 36.4673C24.3722 36.9668 24.7104 37.5539 25.6624 37.3692C33.1248 34.8812 38.5016 27.8416 38.5016 19.5431C38.5 9.16524 30.0872 0.752441 19.7109 0.752441Z" fill="#7B84EB"/>
<path d="M8.03824 27.7305C7.99753 27.8244 7.85035 27.8526 7.71569 27.7884C7.57947 27.7273 7.50275 27.599 7.54659 27.5066C7.5873 27.4111 7.73448 27.3844 7.8707 27.4486C8.00692 27.5081 8.08521 27.6365 8.03824 27.7305Z" fill="#7B84EB"/>
<path d="M8.79919 28.5791C8.70994 28.6621 8.53458 28.6229 8.41558 28.493C8.29189 28.3615 8.26997 28.1861 8.36078 28.1031C8.45316 28.0201 8.62226 28.0593 8.74596 28.1908C8.86965 28.3207 8.89314 28.4945 8.79919 28.5791Z" fill="#7B84EB"/>
<path d="M9.5398 29.661C9.42393 29.7408 9.23604 29.6657 9.12017 29.4997C9.00431 29.3322 9.00431 29.1318 9.1233 29.0519C9.23917 28.9721 9.4255 29.0441 9.54293 29.2101C9.65723 29.3792 9.65723 29.5796 9.5398 29.661Z" fill="#7B84EB"/>
<path d="M10.5544 30.7069C10.4511 30.8212 10.2319 30.7899 10.0722 30.6348C9.90775 30.483 9.86235 30.2685 9.96568 30.1542C10.0706 30.0399 10.2914 30.0727 10.4526 30.2262C10.6155 30.3781 10.664 30.5941 10.5544 30.7069Z" fill="#7B84EB"/>
<path d="M11.9557 31.3128C11.9103 31.46 11.699 31.5273 11.486 31.4647C11.2731 31.4005 11.1337 31.2283 11.1776 31.0795C11.2214 30.9308 11.4343 30.8619 11.6489 30.9292C11.8602 30.9918 11.9996 31.1641 11.9557 31.3128Z" fill="#7B84EB"/>
<path d="M13.4933 31.4255C13.498 31.5805 13.318 31.7089 13.0941 31.712C12.8702 31.7167 12.687 31.5915 12.6854 31.4396C12.6854 31.283 12.8623 31.1562 13.0862 31.1515C13.3101 31.1468 13.4933 31.2721 13.4933 31.4255Z" fill="#7B84EB"/>
<path d="M14.9244 31.1828C14.951 31.3331 14.796 31.4897 14.5737 31.5304C14.356 31.5711 14.1541 31.4772 14.1259 31.3268C14.0993 31.1718 14.2574 31.0168 14.475 30.9761C14.6958 30.937 14.8962 31.0278 14.9244 31.1828Z" fill="#7B84EB"/>
</g>
<defs>
<clipPath id="clip0_10_107">
<rect width="37.5781" height="37.5781" fill="white" transform="translate(0.921875 0.289062)"/>
</clipPath>
</defs>
</svg>
