<svg width="25" height="25" viewBox="0 0 38 38" fill="none" xmlns="http://www.w3.org/2000/svg">
<g clip-path="url(#clip0_10_117)">
<path d="M19.1406 0.289062C15.4245 0.289063 11.7918 1.39102 8.70199 3.45559C5.61214 5.52016 3.2039 8.45461 1.7818 11.8879C0.359704 15.3211 -0.0123826 19.099 0.712597 22.7437C1.43758 26.3884 3.22706 29.7363 5.85476 32.364C8.48246 34.9917 11.8303 36.7812 15.4751 37.5062C19.1198 38.2311 22.8976 37.8591 26.3309 36.437C29.7641 35.0149 32.6986 32.6066 34.7632 29.5168C36.8277 26.4269 37.9297 22.7943 37.9297 19.0781C37.9243 14.0966 35.943 9.32067 32.4206 5.7982C28.8981 2.27574 24.1221 0.29445 19.1406 0.289063V0.289062ZM32.6797 11.2493H27.6364C26.5075 8.63295 25.021 6.18583 23.2194 3.97798C27.2066 5.06294 30.6056 7.67547 32.6797 11.2493V11.2493ZM26.1865 19.0781C26.1737 20.6723 25.9225 22.2556 25.4412 23.7754H12.84C12.3588 22.2556 12.1076 20.6723 12.0947 19.0781C12.1076 17.484 12.3588 15.9007 12.84 14.3809H25.4412C25.9225 15.9007 26.1737 17.484 26.1865 19.0781V19.0781ZM14.0958 26.9069H24.1855C22.8565 29.5307 21.1576 31.9499 19.1406 34.0906C17.123 31.9506 15.4239 29.5312 14.0958 26.9069V26.9069ZM14.0958 11.2493C15.4247 8.62557 17.1237 6.2063 19.1406 4.06566C21.1583 6.2057 22.8574 8.62508 24.1855 11.2493H14.0958ZM15.0697 3.97798C13.2654 6.18536 11.7762 8.6325 10.6448 11.2493H5.60155C7.67751 7.67384 11.0796 5.0611 15.0697 3.97798V3.97798ZM4.20489 14.3809H9.58953C9.18362 15.914 8.97318 17.4922 8.96322 19.0781C8.97318 20.664 9.18362 22.2423 9.58953 23.7754H4.20489C3.24249 20.7178 3.24249 17.4384 4.20489 14.3809V14.3809ZM5.60155 26.9069H10.6448C11.7762 29.5238 13.2654 31.9709 15.0697 34.1783C11.0796 33.0952 7.67751 30.4824 5.60155 26.9069V26.9069ZM23.2194 34.1783C25.021 31.9704 26.5075 29.5233 27.6364 26.9069H32.6797C30.6056 30.4808 27.2066 33.0933 23.2194 34.1783V34.1783ZM34.0764 23.7754H28.6917C29.0976 22.2423 29.3081 20.664 29.318 19.0781C29.3081 17.4922 29.0976 15.914 28.6917 14.3809H34.0732C35.0356 17.4384 35.0356 20.7178 34.0732 23.7754H34.0764Z" fill="#7B84EB"/>
</g>
<defs>
<clipPath id="clip0_10_117">
<rect width="37.5781" height="37.5781" fill="white" transform="translate(0.351562 0.289062)"/>
</clipPath>
</defs>
</svg>
