<svg width="25" height="25" viewBox="0 0 39 38" fill="none" xmlns="http://www.w3.org/2000/svg">
<path d="M32.5113 32.3084H26.943V23.5884C26.943 21.5088 26.9059 18.833 24.0468 18.833C21.1469 18.833 20.7025 21.0977 20.7025 23.4384V32.3084H15.136V14.3758H20.4821V16.8257H20.5562C21.6469 14.9628 23.6727 13.8499 25.8301 13.9295C31.4743 13.9295 32.5131 17.6423 32.5131 22.4699L32.5113 32.3084ZM8.85296 11.924C7.06785 11.924 5.62161 10.4778 5.62161 8.69268C5.62161 6.90757 7.06785 5.46133 8.85296 5.46133C10.6381 5.46133 12.0843 6.90757 12.0843 8.69268C12.0843 10.4778 10.6381 11.924 8.85296 11.924ZM11.6362 32.3084H6.06233V14.3758H11.6362V32.3084ZM35.2871 0.291167H3.2643C1.7514 0.274501 0.510705 1.48742 0.492188 3.00032V35.1546C0.510705 36.6693 1.7514 37.8823 3.2643 37.8656H35.2871C36.8037 37.8841 38.0499 36.6712 38.0703 35.1546V2.99847C38.0481 1.48186 36.8018 0.268946 35.2871 0.289315" fill="#7B84EB"/>
</svg>
