<svg width="35" height="35" viewBox="0 0 35 35" fill="none" xmlns="http://www.w3.org/2000/svg">
<path d="M17.5 15.3125C12.0743 15.3125 4.43655 23.7002 4.43655 28.998C4.37639 31.3838 6.20432 32.8125 9.28323 32.8125C12.6192 32.8125 14.8272 31.0967 17.5 31.0967C20.2002 31.0967 22.4151 32.8125 25.7168 32.8125C28.7315 32.8125 30.6209 31.3851 30.6209 29.0015C30.5635 23.707 22.9278 15.3125 17.5 15.3125ZM7.43753 14.4512C6.72864 12.0846 4.53225 10.5465 2.54163 11.025C0.551002 11.5035 -0.485599 13.8086 0.223561 16.1738C0.932448 18.5459 3.12883 20.084 5.11946 19.6055C7.11008 19.1269 8.14163 16.8164 7.43753 14.4512ZM13.2276 13.0293C15.3378 12.4739 16.3974 9.67284 15.586 6.64657C14.7745 3.6203 12.4073 1.78622 10.2888 2.28046C8.17854 2.83588 7.11897 5.6369 7.9304 8.66317C8.74319 11.6279 11.1084 13.5898 13.2276 13.0293ZM32.4639 11.0264C30.4733 10.6094 28.2769 12.0859 27.568 14.4525C26.8591 16.8198 27.8927 19.1263 29.8833 19.6048C31.874 20.0218 34.0615 18.5452 34.7792 16.1786C35.4854 13.8086 34.3916 11.5049 32.4639 11.0264ZM21.7725 13.0293C23.8301 13.5847 26.2582 11.6279 27.0697 8.66317C27.8811 5.69843 26.8219 2.83553 24.7113 2.28046C22.6536 1.72504 20.2255 3.68182 19.4141 6.64657C18.6006 9.61132 19.6602 12.4756 21.7725 13.0293Z" fill="#7B84EB"/>
<path fill-rule="evenodd" clip-rule="evenodd" d="M13.2144 27.1428C13.2144 27.0481 13.252 26.9573 13.319 26.8903C13.3859 26.8233 13.4768 26.7857 13.5715 26.7857H20.7144C20.8091 26.7857 20.8999 26.8233 20.9669 26.8903C21.0339 26.9573 21.0715 27.0481 21.0715 27.1428C21.0715 27.2376 21.0339 27.3284 20.9669 27.3954C20.8999 27.4624 20.8091 27.5 20.7144 27.5H13.5715C13.4768 27.5 13.3859 27.4624 13.319 27.3954C13.252 27.3284 13.2144 27.2376 13.2144 27.1428ZM13.2144 24.2857C13.2144 24.191 13.252 24.1001 13.319 24.0332C13.3859 23.9662 13.4768 23.9286 13.5715 23.9286H20.7144C20.8091 23.9286 20.8999 23.9662 20.9669 24.0332C21.0339 24.1001 21.0715 24.191 21.0715 24.2857C21.0715 24.3804 21.0339 24.4713 20.9669 24.5382C20.8999 24.6052 20.8091 24.6428 20.7144 24.6428H13.5715C13.4768 24.6428 13.3859 24.6052 13.319 24.5382C13.252 24.4713 13.2144 24.3804 13.2144 24.2857ZM13.2144 21.4286C13.2144 21.3338 13.252 21.243 13.319 21.176C13.3859 21.109 13.4768 21.0714 13.5715 21.0714H20.7144C20.8091 21.0714 20.8999 21.109 20.9669 21.176C21.0339 21.243 21.0715 21.3338 21.0715 21.4286C21.0715 21.5233 21.0339 21.6141 20.9669 21.6811C20.8999 21.7481 20.8091 21.7857 20.7144 21.7857H13.5715C13.4768 21.7857 13.3859 21.7481 13.319 21.6811C13.252 21.6141 13.2144 21.5233 13.2144 21.4286V21.4286Z" fill="#E9EBF3"/>
</svg>
