<svg width="10" height="10" viewBox="0 0 35 35" fill="none" xmlns="http://www.w3.org/2000/svg">
<path d="M17.5 15.3125C12.0743 15.3125 4.43652 23.7002 4.43652 28.998C4.37636 31.3838 6.20429 32.8125 9.2832 32.8125C12.6191 32.8125 14.8271 31.0967 17.5 31.0967C20.2002 31.0967 22.415 32.8125 25.7168 32.8125C28.7314 32.8125 30.6209 31.3851 30.6209 29.0015C30.5635 23.707 22.9277 15.3125 17.5 15.3125ZM7.4375 14.4512C6.72861 12.0846 4.53222 10.5465 2.5416 11.025C0.550972 11.5035 -0.48563 13.8086 0.223531 16.1738C0.932417 18.5459 3.1288 20.084 5.11943 19.6055C7.11005 19.1269 8.1416 16.8164 7.4375 14.4512ZM13.2275 13.0293C15.3378 12.4739 16.3974 9.67284 15.5859 6.64657C14.7745 3.6203 12.4072 1.78622 10.2888 2.28046C8.17851 2.83588 7.11894 5.6369 7.93037 8.66317C8.74316 11.6279 11.1084 13.5898 13.2275 13.0293ZM32.4639 11.0264C30.4732 10.6094 28.2769 12.0859 27.568 14.4525C26.8591 16.8198 27.8927 19.1263 29.8833 19.6048C31.8739 20.0218 34.0614 18.5452 34.7792 16.1786C35.4853 13.8086 34.3916 11.5049 32.4639 11.0264ZM21.7725 13.0293C23.8301 13.5847 26.2582 11.6279 27.0696 8.66317C27.881 5.69842 26.8218 2.83553 24.7112 2.28046C22.6536 1.72504 20.2255 3.68182 19.4141 6.64657C18.6006 9.61132 19.6602 12.4756 21.7725 13.0293Z" fill="#7B84EB"/>
</svg>
