<svg width="70" height="70" viewBox="0 0 84 84" fill="none" xmlns="http://www.w3.org/2000/svg">
<g clip-path="url(#clip0_2_26)">
<path d="M80.5 73.5C79.5717 73.5 78.6815 73.1312 78.0251 72.4749C77.3687 71.8185 77 70.9283 77 70V52.5C75.0715 6.05499 8.911 6.09349 7 52.5V70C7 70.9283 6.63125 71.8185 5.97487 72.4749C5.3185 73.1312 4.42826 73.5 3.5 73.5C2.57174 73.5 1.6815 73.1312 1.02513 72.4749C0.368749 71.8185 0 70.9283 0 70V52.5C2.3135 -3.23401 81.7075 -3.18851 84 52.5V70C84 70.9283 83.6313 71.8185 82.9749 72.4749C82.3185 73.1312 81.4283 73.5 80.5 73.5ZM70 70V52.5C68.6 15.4 15.4 15.4245 14 52.5V70C14 70.9283 14.3687 71.8185 15.0251 72.4749C15.6815 73.1312 16.5717 73.5 17.5 73.5C18.4283 73.5 19.3185 73.1312 19.9749 72.4749C20.6313 71.8185 21 70.9283 21 70V52.5C21.8855 24.738 62.125 24.759 63 52.5V70C63 70.9283 63.3687 71.8185 64.0251 72.4749C64.6815 73.1312 65.5717 73.5 66.5 73.5C67.4283 73.5 68.3185 73.1312 68.9749 72.4749C69.6313 71.8185 70 70.9283 70 70ZM56 70V52.5C56 48.787 54.525 45.226 51.8995 42.6005C49.274 39.975 45.713 38.5 42 38.5C38.287 38.5 34.726 39.975 32.1005 42.6005C29.475 45.226 28 48.787 28 52.5V70C28 70.9283 28.3687 71.8185 29.0251 72.4749C29.6815 73.1312 30.5717 73.5 31.5 73.5C32.4283 73.5 33.3185 73.1312 33.9749 72.4749C34.6313 71.8185 35 70.9283 35 70V52.5C35 50.6435 35.7375 48.863 37.0503 47.5502C38.363 46.2375 40.1435 45.5 42 45.5C43.8565 45.5 45.637 46.2375 46.9497 47.5502C48.2625 48.863 49 50.6435 49 52.5V70C49 70.9283 49.3687 71.8185 50.0251 72.4749C50.6815 73.1312 51.5717 73.5 52.5 73.5C53.4283 73.5 54.3185 73.1312 54.9749 72.4749C55.6313 71.8185 56 70.9283 56 70Z" fill="#7B84EB"/>
</g>
<defs>
<clipPath id="clip0_2_26">
<rect width="84" height="84" fill="white"/>
</clipPath>
</defs>
</svg>
